<?xml version="1.0" encoding="UTF-8"?>
<svg width="147px" height="310px" viewBox="0 0 147 310" version="1.1" xmlns="http://www.w3.org/2000/svg" xmlns:xlink="http://www.w3.org/1999/xlink">
    <!-- Generator: Sketch 50.2 (55047) - http://www.bohemiancoding.com/sketch -->
    <title>Doctor</title>
    <desc>Created with Sketch.</desc>
    <defs>
        <filter x="-2.6%" y="-15.7%" width="105.3%" height="131.3%" filterUnits="objectBoundingBox" id="filter-1">
            <feGaussianBlur stdDeviation="1.25279018" in="SourceGraphic"></feGaussianBlur>
        </filter>
    </defs>
    <g id="Page-2" stroke="none" stroke-width="1" fill="none" fill-rule="evenodd">
        <g id="Green-Landing" transform="translate(-870.000000, -456.000000)">
            <g id="HEADER" transform="translate(166.000000, -79.000000)">
                <g id="header-graphics" transform="translate(642.000000, 219.000000)">
                    <g id="Doctor" transform="translate(64.000000, 316.000000)">
                        <path d="M22.9590756,68.0737436 C14.5774803,64.1711999 10.2936393,60.8241696 10.1075526,58.0326528 C9.54841686,49.6449687 20.2128472,46.250524 22.9590756,39.7167731 C26.8650615,30.4237595 23.7049797,19.1897044 26.2643705,16.0423656 C28.0460385,13.8514095 31.626161,10.7785525 37.4606377,6.85088839 C43.011751,3.11397931 50.6311849,-1.6085473 59.6266084,1.02656383 C63.0703989,2.03538468 64.9517216,7.04065196 65.2705763,16.0423656 C70.8927497,17.4546837 73.9970688,19.3779902 74.5835334,21.8122851 C77.560162,34.1676618 66.4065075,40.5452461 66.835654,43.8381441 C67.4085393,48.2339704 70.8967452,52.2871002 71.1187497,55.6604423 C71.7315237,64.9715001 70.8501118,67.993342 68.4745138,64.7259681 L22.9590756,68.0737436 Z" id="Path" fill="#283050"></path>
                        <polygon id="Path" fill="#283050" points="16.210032 284.950684 16.210032 291.876971 28.2223978 299.051692 35.8510016 300.231976 37.7138495 296.240038 29.7069704 290.189429 28.2223978 281.143085"></polygon>
                        <polygon id="Path" fill="#283050" points="68.6566436 277.050904 68.6566436 282.894163 79.1980589 288.030809 90.5610215 288.64638 90.5610215 286.006147 81.5420574 281.593015 78.6419941 273.362125"></polygon>
                        <path d="M19.5142785,198.076545 L16.114207,284.961992 L28.7279438,284.961992 L51.8107146,198.076545 L68.6333649,230.698732 L68.6333649,277.1098 L79.9281297,277.1098 C84.980858,240.999376 87.5072222,222.944163 87.5072222,222.944163 C87.5072222,222.944163 82.1820526,199.034594 71.5317136,151.215456 L36.9076295,151.215456 L19.5142785,198.076545 Z" id="Path-14" fill="#3D3F81"></path>
                        <path d="M19.5142785,198.076545 C19.9201876,204.326214 21.4421415,209.825933 24.0801404,214.575702 C28.7279438,222.944163 36.8923328,216.533905 36.9076295,226.505775 C36.9125261,229.697838 30.0924406,234.694568 28.7279438,241.558218 C28.0049842,245.194826 31.6498283,254.771979 30.8247775,262.65703 C30.3349266,267.338559 28.0867142,274.773546 24.0801404,284.961992 L28.7279438,284.961992 L51.8107146,198.076545 C58.7045441,207.048805 64.3120942,213.719532 68.6333649,218.088724 C75.115271,224.642512 77.3508711,219.049898 77.3508711,239.688234 C77.3508711,253.447125 77.3508711,265.92098 77.3508711,277.1098 L79.9281297,277.1098 C84.980858,240.999376 87.5072222,222.944163 87.5072222,222.944163 C87.5072222,222.944163 82.1820526,199.034594 71.5317136,151.215456 L36.9076295,151.215456 L19.5142785,198.076545 Z" id="Path-14" fill="#979797" opacity="0.487444196" style="mix-blend-mode: multiply;"></path>
                        <path d="M35.8859928,47.7019591 L41.1717343,42.1763275 C39.6541646,39.6516077 38.5623992,37.6731899 37.8964383,36.2410744 C37.6371094,35.6834005 34.5654085,38.4086296 32.8450702,29.4541392 C31.8858263,24.4612026 36.4494748,28.8969286 36.3528563,27.9896948 C36.2562378,27.0824609 35.3479327,10.2907429 43.1559324,7.23086071 C56.3177532,2.07286595 63.0437221,8.41326606 63.3338391,26.252061 C62.8464557,34.9489685 61.9798412,40.2570573 60.7339953,42.1763275 C59.4881495,44.0955977 58.2594031,45.6842118 57.0477563,46.9421698 L60.7339953,50.1512457 L70.1774141,91.7752716 L41.1717343,82.9268686 L35.8859928,47.7019591 Z" id="Path-16" fill="#C8C8D7"></path>
                        <path d="M37.4049828,57.6861125 C42.9837678,65.2588206 48.0907443,67.1519976 52.7259124,63.3656435 C57.3610804,59.5792895 58.2117072,54.1047983 55.2777926,46.9421698 C53.368188,48.1121496 52.0905739,48.6765575 51.4449504,48.6353936 C46.0205434,48.2895422 43.7210085,45.672134 43.1559324,44.4569659 C43.0121499,44.1477689 45.1255959,47.9101311 46.998797,40.6189687 C50.399285,27.383064 30.6943335,19.2079925 51.4449504,19.2079925 C53.5851309,19.2079925 37.5016013,20.1152264 37.4049828,19.2079925 C37.3083643,18.3007586 35.3479327,10.2907429 43.1559324,7.23086071 C56.3177532,2.07286595 63.0437221,8.41326606 63.3338391,26.252061 C62.8464557,34.9489685 61.9798412,40.2570573 60.7339953,42.1763275 C59.4881495,44.0955977 58.2594031,45.6842118 57.0477563,46.9421698 L60.7339953,50.1512457 L70.1774141,91.7752716 L41.1717343,82.9268686 L37.4049828,57.6861125 Z" id="Path-16" fill="#C8C8D7" opacity="0.3046875" style="mix-blend-mode: multiply;"></path>
                        <path d="M36.2096957,52.5846368 C41.4221241,60.4958454 46.1057144,65.1112382 50.2604666,66.4308151 C54.4152187,67.7503921 59.0821319,64.6579777 64.261206,57.1535719 L58.9846846,89.2862115 L44.6721426,86.6774336 L36.2096957,52.5846368 Z" id="Path-15" fill="#1A81FB"></path>
                        <path d="M36.8900126,46.6398813 C22.627733,55.2179141 14.4769571,63.4865881 12.4376849,71.4459032 C10.6711156,78.3408541 8.57138853,95.3750755 12.4376849,115.621085 C12.8355748,117.704651 14.5493879,119.834495 17.5791242,122.010617 L14.632599,166.634865 L12.4376849,199.876185 C19.8536393,204.418208 25.56379,207.146577 29.5681368,208.061291 C33.5724836,208.976005 42.8674579,209.675263 57.4530596,210.159063 C60.1699129,204.658079 61.8515156,200.565526 62.4978677,197.881404 C63.1442197,195.197282 63.8169644,189.512879 64.5161017,180.828195 C64.5161017,188.108664 64.5161017,193.793067 64.5161017,197.881404 C64.5161017,201.969741 64.5161017,205.363037 64.5161017,208.061291 C70.9861672,206.681316 75.6971206,205.18523 78.6489617,203.573034 C81.6008028,201.960838 84.9669955,199.045458 88.7475399,194.826896 L78.6489617,110.593478 C82.7292588,115.829668 86.0954515,118.128002 88.7475399,117.488482 C91.3996283,116.848961 100.063554,111.649702 114.739318,101.890704 C112.568738,95.1321241 110.796653,90.8765012 109.423064,89.1238357 C108.049475,87.3711702 105.826126,86.5287186 102.753016,86.5964809 C94.3338287,90.949492 88.5875408,91.7919436 85.5141519,89.1238357 C83.8037562,87.6389861 81.0016357,75.0237597 75.9847367,67.0565721 C73.3194668,62.8239367 68.0845221,57.0464803 60.2799026,49.7242029 C59.3744657,71.729018 57.7026622,82.5706702 55.2644922,82.2491595 C52.8263222,81.9276487 46.7014957,70.0578894 36.8900126,46.6398813 Z" id="Path-6" fill="#FAFAFA"></path>
                        <path d="M36.8900126,46.6398813 C32.7264873,45.3786617 29.6250885,48.7277095 27.5858163,56.6870246 C25.819247,63.5819755 29.0166018,62.0031501 32.8828982,82.2491595 C33.0041634,82.8841695 32.4776913,85.1725126 32.8828982,99.3613363 C32.9432008,101.472909 51.3184601,102.833399 51.3616584,108.1096 C51.3879547,111.321407 55.824036,124.607279 51.3616584,128.399472 C46.6397531,132.412216 33.0008377,126.884277 32.8828982,128.399472 C32.1565068,137.731586 27.8041465,139.393106 27.5858163,150.184029 C27.3912747,159.799212 38.5545064,171.59855 36.8900126,180.828195 C35.140544,190.529027 26.9897681,196.878357 12.4376849,199.876185 C19.8536393,204.418208 25.56379,207.146577 29.5681368,208.061291 C33.5724836,208.976005 42.8674579,209.675263 57.4530596,210.159063 C60.1699129,204.658079 61.8515156,200.565526 62.4978677,197.881404 C63.1442197,195.197282 63.8169644,189.512879 64.5161017,180.828195 C64.5161017,188.108664 64.5161017,193.793067 64.5161017,197.881404 C64.5161017,201.969741 64.5161017,205.363037 64.5161017,208.061291 C70.9861672,206.681316 75.6971206,205.18523 78.6489617,203.573034 C81.6008028,201.960838 84.9669955,199.045458 88.7475399,194.826896 L78.6489617,110.593478 C82.7292588,115.829668 86.0954515,118.128002 88.7475399,117.488482 C91.3996283,116.848961 100.063554,111.649702 114.739318,101.890704 C112.568738,95.1321241 110.796653,90.8765012 109.423064,89.1238357 C108.049475,87.3711702 105.826126,86.5287186 102.753016,86.5964809 C94.3338287,90.949492 88.5875408,91.7919436 85.5141519,89.1238357 C83.8037562,87.6389861 81.0016357,75.0237597 75.9847367,67.0565721 C73.3194668,62.8239367 68.0845221,57.0464803 60.2799026,49.7242029 C59.3744657,71.729018 57.7026622,82.5706702 55.2644922,82.2491595 C52.8263222,81.9276487 46.7014957,70.0578894 36.8900126,46.6398813 Z" id="Path-6" fill="#2E5BEA" style="mix-blend-mode: multiply;" opacity="0.08515625"></path>
                        <path d="M64.5161017,180.828195 C64.5161017,188.108664 64.5161017,193.793067 64.5161017,197.881404 C64.5161017,201.969741 64.5161017,205.363037 64.5161017,208.061291 C70.9861672,206.681316 75.6971206,205.18523 78.6489617,203.573034 C81.6008028,201.960838 84.9669955,199.045458 88.7475399,194.826896 L78.6489617,110.593478 C82.7292588,115.829668 86.0954515,118.128002 88.7475399,117.488482 C91.3996283,116.848961 100.063554,111.649702 114.739318,101.890704 C112.568738,95.1321241 110.796653,90.8765012 109.423064,89.1238357 C108.049475,87.3711702 105.826126,86.5287186 102.753016,86.5964809 C94.3338287,90.949492 88.5875408,91.7919436 85.5141519,89.1238357 C83.8037562,87.6389861 81.0016357,75.0237597 75.9847367,67.0565721 C73.3194668,62.8239367 68.0845221,57.0464803 60.2799026,49.7242029 C59.3744657,71.729018 57.7026622,82.5706702 55.2644922,82.2491595 C53.5282229,82.0202053 58.5457403,97.7922643 62.4100866,131.216651 C63.4515483,140.224699 64.1535533,156.761881 64.5161017,180.828195 Z" id="Path-6" fill="#2E5BEA" style="mix-blend-mode: multiply;" opacity="0.08515625"></path>
                        <path d="M36.8900126,46.6398813 L27.729833,52.7235039 C31.7315501,62.056844 34.7849433,68.0997071 36.8900126,70.8520934 C37.1825625,71.2346035 43.4205631,67.0861686 43.9501849,67.68253 C44.6265136,68.4440853 39.6490275,73.995643 40.4741091,74.8441263 C42.5927343,77.0228414 47.522862,80.0728657 55.2644922,83.9941992 C59.0550488,82.5988922 61.8647973,79.5488679 63.6937377,74.8441263 C63.9402745,74.2099383 59.4414809,71.5322004 59.669127,70.8520934 C59.8865337,70.2025775 64.8312108,71.5527115 65.031388,70.8613146 C65.794841,68.2244056 66.658078,63.5837039 67.6210991,56.9392097 L60.2799026,49.7242029 C59.3744657,71.729018 57.7026622,82.5706702 55.2644922,82.2491595 C52.8263222,81.9276487 46.7014957,70.0578894 36.8900126,46.6398813 Z" id="Path-6" fill="#2E5BEA" opacity="0.088671875" style="mix-blend-mode: multiply;"></path>
                        <path d="M78.6489617,110.593478 C82.7292588,115.829668 86.0954515,118.128002 88.7475399,117.488482 C91.3996283,116.848961 100.063554,111.649702 114.739318,101.890704 C112.568738,95.1321241 110.796653,90.8765012 109.423064,89.1238357 C108.049475,87.3711702 105.826126,86.5287186 102.753016,86.5964809 C94.3338287,90.949492 88.5875408,91.7919436 85.5141519,89.1238357 C83.8037562,87.6389861 81.0016357,75.0237597 75.9847367,67.0565721 C73.3194668,62.8239367 68.0845221,57.0464803 60.2799026,49.7242029 C66.1514632,53.2881636 70.4543828,59.6004128 73.1886614,68.6609506 C75.9229399,77.7214884 77.74304,91.6989975 78.6489617,110.593478 Z" id="Path-6" fill="#2E5BEA" opacity="0.139229911" style="mix-blend-mode: multiply;"></path>
                        <path d="M22.0134858,71.4459032 C17.6688907,63.4865881 14.4769571,63.4865881 12.4376849,71.4459032 C10.6711156,78.3408541 8.57138853,95.3750755 12.4376849,115.621085 C12.8355748,117.704651 14.5493879,119.834495 17.5791242,122.010617 L22.0134858,123.681735 C32.6898035,128.300102 39.9999781,130.609286 43.9440099,130.609286 C49.8600575,130.609286 55.6109781,127.312385 50.594079,119.345197 C47.9288092,115.112562 47.9288092,110.745984 50.594079,106.245462 C40.7432185,102.199999 34.5987032,100.016513 32.1605332,99.6950019 C29.7223632,99.3734912 26.3400141,89.957125 22.0134858,71.4459032 Z" id="Path-6" fill="#2E5BEA" style="mix-blend-mode: multiply;" opacity="0.0216517857"></path>
                        <path d="M48.9090855,105.360062 C42.4728411,111.915022 39.8272719,117.771432 40.9723781,122.929292 C42.6900373,130.666083 46.5331844,130.666083 50.0267728,130.666083 C52.3558317,130.666083 53.5203612,128.087152 53.5203612,122.929292 C52.6865336,117.197598 51.9302718,113.038816 51.251576,110.452945 C50.5728802,107.867074 49.79205,106.169447 48.9090855,105.360062 Z" id="Path-19" fill="#283050"></path>
                        <path d="M46.07793,119.167801 C51.3929442,122.510132 55.0596513,124.312672 57.0780514,124.575421 C57.8971572,124.68205 59.4018998,124.228425 61.0582862,123.44983 C65.5242783,121.350563 71.0926648,116.888889 67.2968696,114.676545 C62.0932566,111.643668 56.7644465,114.784644 53.3064413,112.102206 C49.8484362,109.419768 55.5972052,105.004083 53.3064413,104.5227 C51.0156775,104.041318 47.2117178,108.354753 46.07793,110.982406 C45.3220714,112.734175 45.3220714,115.46264 46.07793,119.167801 Z" id="Path-12" fill="#C8C8D7"></path>
                        <path d="M46.07793,119.167801 C51.3929442,122.510132 55.0596513,124.312672 57.0780514,124.575421 C60.1056516,124.969546 72.5004826,117.709423 67.2968696,114.676545 C62.0932566,111.643668 59.678023,117.358984 56.2200179,114.676545 C52.7620128,111.994107 49.2529724,116.738426 46.9622086,116.257044 C44.6714447,115.775661 47.2117178,108.354753 46.07793,110.982406 C45.3220714,112.734175 45.3220714,115.46264 46.07793,119.167801 Z" id="Path-12" fill="#C8C8D7" opacity="0.0927455357" style="mix-blend-mode: multiply;"></path>
                        <path d="M57.0780514,124.575421 C60.1056516,124.969546 72.5004826,117.709423 67.2968696,114.676545 C63.580271,112.51036 61.2623352,113.356169 58.9947215,113.868253 C58.0874472,114.073138 57.2081973,115.443094 56.2200179,114.676545 C54.0031035,112.956844 56.1857456,118.26998 57.0780514,121.747801 C57.5775892,123.694783 55.9914347,124.433969 57.0780514,124.575421 Z" id="Path-12" fill="#FCAF94" opacity="0.07734375" style="mix-blend-mode: multiply;"></path>
                        <path d="M57.0780514,124.575421 C60.1056516,124.969546 72.5004826,117.709423 67.2968696,114.676545 C65.1983359,113.453434 66.0184797,116.667411 65.3775367,118.389536 C64.8833406,119.717373 62.8943379,119.506147 61.9071056,119.729089 C61.6020285,119.797983 60.3938547,122.420662 59.6527678,121.747801 C58.1899229,120.41963 56.8759154,115.185337 56.2200179,114.676545 C54.0031035,112.956844 56.1857456,118.26998 57.0780514,121.747801 C57.5775892,123.694783 55.9914347,124.433969 57.0780514,124.575421 Z" id="Path-12" fill="#C8C8D7" opacity="0.110993304" style="mix-blend-mode: multiply;"></path>
                        <path d="M101.802868,92.1287277 C101.802868,91.2258337 102.210339,89.2908341 103.025281,86.3237288 C106.063349,86.2880348 108.319753,87.2256729 109.794493,89.1366432 C111.269233,91.0476135 113.142923,95.4233336 115.415563,102.263803 C111.65782,103.575051 108.505213,103.575051 105.957743,102.263803 C103.025281,100.754391 103.650234,98.7036154 103.025281,96.9417217 C102.193075,94.5955349 101.802868,92.9022123 101.802868,92.1287277 Z" id="Path" fill="#000000"></path>
                        <path d="M101.942636,90.3895459 L111.59537,79.6879258 C116.366847,75.285495 119.110148,73.0842796 119.825272,73.0842796 C120.540397,73.0842796 119.484449,74.9018168 116.65743,78.5368912 C121.359662,78.5982131 124.35909,78.2508474 125.655714,77.4947941 C129.857787,75.0445911 129.553932,72.01419 130.761514,73.0842796 C132.528026,74.6496617 130.46224,79.0692578 124.564156,86.3430678 L117.705742,90.3895459 L111.59537,90.3895459 L103.726014,99.9867186 C102.793153,97.0903168 102.198694,94.9531345 101.942636,93.5751716 C101.686579,92.1972087 101.686579,91.1353334 101.942636,90.3895459 Z" id="Path-13" fill="#C8C8D7"></path>
                        <path d="M103.726014,93.5751716 L111.59537,82.4687893 C116.366847,76.2124495 119.110148,73.0842796 119.825272,73.0842796 C120.540397,73.0842796 119.484449,74.9018168 116.65743,78.5368912 C116.05968,83.1733003 116.409118,85.1134781 117.705742,84.3574248 C119.302371,83.4264399 118.76622,83.8743629 122.109789,80.4958397 C123.619939,78.9699024 125.768393,79.9852756 127.311472,78.5368912 C129.184868,76.7784597 130.350945,72.720457 130.761514,73.0842796 C132.528026,74.6496617 130.46224,79.0692578 124.564156,86.3430678 L117.705742,90.3895459 L111.59537,90.3895459 L103.726014,99.9867186 C102.793153,97.0903168 102.198694,94.9531345 101.942636,93.5751716 C101.686579,92.1972087 102.281038,92.1972087 103.726014,93.5751716 Z" id="Path-13" fill="#C8C8D7" opacity="0.290401786" style="mix-blend-mode: multiply;"></path>
                        <path d="M64.1560289,17.4085045 C61.3213455,13.9387015 58.0704328,14.4259496 54.4032909,18.8702487 C48.2561068,26.3201717 46.136333,20.207441 42.0162207,21.5162453 C39.9838965,22.1618381 38.8370933,25.5330791 38.5758113,31.6299685 C37.2831473,30.2274426 36.4447368,29.0869833 36.0605798,28.2085906 C35.6764228,27.3301979 34.4416244,23.7301692 32.3561846,17.4085045 L39.5003753,7.68216495 L51.120045,4.22333791 C55.3858375,3.92822762 58.2526407,4.53559945 59.7204547,6.0454534 C61.1882687,7.55530735 62.6667934,11.342991 64.1560289,17.4085045 Z" id="Path-17" fill="#283050"></path>
                        <path d="M50.2771493,105.771403 C44.7557031,108.486595 41.9949801,112.793535 41.9949801,118.692224 C41.9949801,124.590913 44.2199949,127.993568 48.6700246,128.90019 C44.0794277,130.368111 41.0736209,130.368111 39.6526045,128.90019 C37.5210798,126.698309 35.8025859,124.27692 30.3641656,109.475169 C29.945066,108.334506 22.8718944,110.744265 22.4247706,109.475169 C21.6830372,107.369866 26.220055,104.952462 25.531806,101.112308 C25.3472421,100.082515 19.1565126,100.716258 18.8132049,99.1921887 C18.3958097,97.3392179 25.90008,96.2539525 25.531806,91.6992485 C25.3200138,89.0798646 23.3909848,78.7643401 20.6812978,71.7273506 C19.807582,69.4583323 18.3609392,67.3672136 16.3413694,65.4539945 C18.6340274,65.7839573 20.6618278,67.875076 22.4247706,71.7273506 C24.3155156,75.8588908 24.1916722,95.5762504 33.6603868,100.187802 C38.0247207,102.313366 40.9433164,102.326651 44.0559696,103.357257 C44.9822495,103.66395 47.055976,104.468665 50.2771493,105.771403 Z" id="Path-18" fill="#2E5BEA" style="mix-blend-mode: multiply;" opacity="0.0659598214"></path>
                        <path d="M41.3997831,103.172701 C33.7925629,100.206501 29.4852518,97.9190226 28.4778499,96.3102646 C27.470448,94.7015065 24.1185754,84.7577469 18.4222321,66.4789857 C21.5069881,80.8489488 25.205079,90.7927085 29.5165046,96.3102646 C33.8279303,101.827821 40.2477726,104.832507 48.7760316,105.324325 L41.3997831,103.172701 Z" id="Path-20" fill="#283050" opacity="0.318080357"></path>
                        <ellipse id="Oval-4" fill="#2E5BEA" opacity="0.216908482" filter="url(#filter-1)" cx="71.5" cy="295" rx="71.5" ry="12"></ellipse>
                    </g>
                </g>
            </g>
        </g>
    </g>
</svg>