<?xml version="1.0" encoding="UTF-8"?>
<svg width="292px" height="599px" viewBox="0 0 292 599" version="1.1" xmlns="http://www.w3.org/2000/svg" xmlns:xlink="http://www.w3.org/1999/xlink">
    <!-- Generator: Sketch 50.2 (55047) - http://www.bohemiancoding.com/sketch -->
    <title>PHONE</title>
    <desc>Created with Sketch.</desc>
    <defs>
        <linearGradient x1="50%" y1="0%" x2="50%" y2="100%" id="linearGradient-1">
            <stop stop-color="#5258D1" offset="0%"></stop>
            <stop stop-color="#3D3F81" offset="100%"></stop>
        </linearGradient>
        <linearGradient x1="56.5543484%" y1="85.6861415%" x2="50%" y2="10.7145092%" id="linearGradient-2">
            <stop stop-color="#4C85D9" offset="0%"></stop>
            <stop stop-color="#7DD0D3" offset="100%"></stop>
        </linearGradient>
        <filter x="-2.9%" y="-6.9%" width="105.9%" height="113.9%" filterUnits="objectBoundingBox" id="filter-3">
            <feGaussianBlur stdDeviation="1.48158482" in="SourceGraphic"></feGaussianBlur>
        </filter>
        <filter x="-3.7%" y="-10.7%" width="107.4%" height="121.4%" filterUnits="objectBoundingBox" id="filter-4">
            <feGaussianBlur stdDeviation="2.03404018" in="SourceGraphic"></feGaussianBlur>
        </filter>
        <filter x="-4.7%" y="-14.6%" width="109.4%" height="129.1%" filterUnits="objectBoundingBox" id="filter-5">
            <feGaussianBlur stdDeviation="2.96037946" in="SourceGraphic"></feGaussianBlur>
        </filter>
    </defs>
    <g id="Page-2" stroke="none" stroke-width="1" fill="none" fill-rule="evenodd">
        <g id="Green-Landing" transform="translate(-808.000000, -140.000000)">
            <g id="HEADER" transform="translate(166.000000, -79.000000)">
                <g id="header-graphics" transform="translate(642.000000, 219.000000)">
                    <g id="PHONE">
                        <g id="iPhone">
                            <path d="M34.6649082,46.4916456 L241.506775,0.744054158 C260.651675,-3.84016408 290,13.4537576 290,33.5135582 L269.065716,504.919045 C269.065716,524.978845 253.545708,544.95677 234.400808,549.540988 L49.8452348,598.092307 C30.7003346,602.676525 0,589.406236 0,569.346435 L0,91.1135889 C0,71.0537883 15.5200081,51.0758638 34.6649082,46.4916456 Z" id="Rectangle-2" fill="url(#linearGradient-1)"></path>
                            <path d="M52.4294479,54.0733624 L256.570552,6.93104693 C276.137696,2.41240545 292,14.7783826 292,34.5512298 L292,505.943006 C292,525.715854 276.137696,545.407996 256.570552,549.926638 L52.4294479,597.068953 C32.8623041,601.587595 17,589.221617 17,569.44877 L17,98.0569936 C17,78.2841463 32.8623041,58.5920038 52.4294479,54.0733624 Z" id="Rectangle-2-Copy" fill="#1A81FB"></path>
                            <path d="M57.7777463,79.817094 L256.486091,33.7817205 C267.246784,31.2887577 277.990995,37.9910773 280.483958,48.7517703 C280.826869,50.2319208 281,51.7463258 281,53.2656788 L281,501.178215 C281,509.769837 275.234432,517.292364 266.93805,519.525304 L56.9380499,576.046013 C46.8052326,578.773223 36.3801209,572.769792 33.6529113,562.636974 C33.219523,561.026741 33,559.366461 33,557.698924 L33,110.991427 C33,96.100703 43.2712339,83.1778623 57.7777463,79.817094 Z" id="Rectangle-3" fill="url(#linearGradient-2)"></path>
                            <polygon id="Rectangle-4" fill="#1A81FB" points="0 509 19 520.998535 19 533 0 521.001465"></polygon>
                            <polygon id="Rectangle-4-Copy" fill="#1A81FB" points="0 122 19 133.998535 19 146 0 134.001465"></polygon>
                            <path d="M109.540541,50.2897395 L229.459459,20.4878032 C238.594548,18.217575 246,24.0878805 246,33.5994975 L246,47.3773425 C246,56.8889595 238.594548,66.4400323 229.459459,68.7102605 L109.540541,98.5121968 C100.405452,100.782425 93,94.9121195 93,85.4005025 L93,71.6226575 C93,62.1110405 100.405452,52.5599677 109.540541,50.2897395 Z M134.450417,73.7484562 C133.074577,74.0559568 131.939053,75.4616625 131.914153,76.8881877 L131.899125,77.7491719 C131.874225,79.1756971 132.969377,80.0828459 134.345217,79.7753453 L192.472695,66.7838354 C193.848534,66.4763348 194.984058,65.0706292 195.008958,63.6441039 L195.023987,62.7831197 C195.048887,61.3565945 193.953734,60.4494457 192.577895,60.7569463 L134.450417,73.7484562 Z M208.783784,62.9270579 C211.067556,62.3113528 212.918919,59.6605275 212.918919,57.0062738 C212.918919,54.3520201 211.067556,52.6994499 208.783784,53.3151549 C206.500012,53.93086 204.648649,56.5816853 204.648649,59.235939 C204.648649,61.8901927 206.500012,63.5427629 208.783784,62.9270579 Z" id="Combined-Shape" fill="#1A81FB"></path>
                        </g>
                        <g id="Eye-exam" opacity="0.832254464" transform="translate(71.000000, 143.000000)" fill="#FFFFFF">
                            <path d="M107.348768,46.0205026 L73.8049261,53.8771508 C72.882754,54.0931422 72.1847314,54.0243195 71.7108374,53.6706807 C71.2369434,53.317042 71,52.6755978 71,51.746329 C71,50.7138082 71.2753667,49.9459175 71.8261084,49.4426338 C72.37685,48.9393501 73.6384138,48.4567247 75.6108374,47.9947431 L78.0699507,47.4187689 L78.0699507,12.5326455 L75.6108374,13.1086198 C73.6896456,13.5586019 72.4408896,13.6510379 71.864532,13.3859307 C71.2881745,13.1208235 71,12.4591129 71,11.4007791 C71,10.4456973 71.2369434,9.68680607 71.7108374,9.12408262 C72.1847314,8.56135917 72.9083695,8.16600791 73.8817734,7.93801698 L107.348768,0.0993679858 C108.219709,-0.1046239 108.879308,0.00546405896 109.327586,0.429635164 C109.775864,0.85380627 110,1.569235 110,2.57594281 L110,11.7137065 C110,13.0559836 109.807884,14.030236 109.423645,14.6364928 C109.039407,15.2427496 108.347788,15.6628671 107.348768,15.8968578 C106.298517,16.142848 105.574879,16.0283998 105.177833,15.5535096 C104.780786,15.0786194 104.582266,13.8473915 104.582266,11.8597889 L104.582266,6.32292361 L84.1408867,11.1107092 L84.1408867,24.1591261 L94.2078818,21.8012316 L94.2078818,19.7491067 C94.2078818,18.3552036 94.3935942,17.3437322 94.7650246,16.7146622 C95.1364551,16.0855923 95.7832466,15.6630679 96.7054187,15.4470765 C97.6019749,15.2370849 98.223151,15.381985 98.5689655,15.8817811 C98.9147801,16.3815773 99.0876847,17.5865391 99.0876847,19.4967027 L99.0876847,26.6984995 C99.0876847,28.6344761 98.9083762,29.9154802 98.5497537,30.5415503 C98.1911312,31.1676204 97.5507435,31.5886448 96.6285714,31.8046362 C95.7063993,32.0206276 95.0724155,31.8593679 94.726601,31.3208522 C94.3807864,30.7823365 94.2078818,29.6225468 94.2078818,27.8414483 L94.2078818,26.4862715 L84.1408867,28.8441659 L84.1408867,45.9968326 L104.582266,41.209047 L104.582266,34.9365142 C104.582266,32.9489116 104.780786,31.6246888 105.177833,30.963806 C105.574879,30.3029233 106.298517,29.8494936 107.348768,29.6035034 C108.322172,29.3755124 109.007387,29.4796007 109.404433,29.9157714 C109.80148,30.351942 110,31.3056841 110,32.7770263 L110,42.5342994 C110,43.4635682 109.76946,44.2274126 109.308374,44.8258557 C108.847288,45.4242988 108.194093,45.8225105 107.348768,46.0205026 Z" id="E"></path>
                            <path d="M49.7174038,125.004553 L57.0580126,123.362414 C58.0229801,123.146545 58.7237198,123.177915 59.1602527,123.456524 C59.5967856,123.735132 59.8150488,124.284898 59.8150488,125.105837 C59.8150488,125.903973 59.6082732,126.560224 59.1947157,127.074611 C58.7811582,127.588998 58.1838063,127.933562 57.4026422,128.108313 L40.4124067,131.909132 C39.6312425,132.083883 39.0338906,132.006582 38.6203331,131.677226 C38.2067756,131.347869 38,130.784132 38,129.985997 C38,129.142253 38.224007,128.487848 38.6720276,128.022761 C39.1200482,127.557675 39.8839693,127.204352 40.9638139,126.962785 L44.2722573,126.222666 L44.2722573,95.4033896 L42.1010913,95.8890927 C40.3549597,96.2797129 39.2349249,96.3535442 38.7409535,96.1105886 C38.246982,95.8676331 38,95.2786848 38,94.3437261 C38,93.5455907 38.2067756,92.8893393 38.6203331,92.3749524 C39.0338906,91.8605655 39.6312425,91.5160016 40.4124067,91.3412504 L70.9121195,84.5182791 C71.6932836,84.3435279 72.2848917,84.4449177 72.6869615,84.8224516 C73.0890313,85.1999855 73.2900632,85.8334184 73.2900632,86.7227693 L73.2900632,95.5478228 C73.2900632,96.3459583 73.0890313,96.989523 72.6869615,97.4785361 C72.2848917,97.9675493 71.6932836,98.2994265 70.9121195,98.4741777 C69.947152,98.6900468 69.2923624,98.5856884 68.9477312,98.1610994 C68.6030999,97.7365103 68.4307869,96.6462832 68.4307869,94.8903852 L68.4307869,89.9989795 L49.7174038,94.1852772 L49.7174038,105.712576 L58.8156232,103.677249 L58.8156232,102.787902 C58.8156232,101.12322 58.9764487,99.9698693 59.2981045,99.3278162 C59.6197604,98.6857631 60.1941372,98.2722274 61.0212522,98.0871967 C61.7564655,97.922725 62.2906359,98.0198614 62.6237794,98.3786087 C62.956923,98.737356 63.1234922,99.395601 63.1234922,100.353364 L63.1234922,109.041595 C63.1234922,110.181788 62.9684105,111.003202 62.6582424,111.505863 C62.3480743,112.008523 61.8024163,112.347223 61.0212522,112.521974 C60.1941372,112.707005 59.6197604,112.550452 59.2981045,112.052312 C58.9764487,111.554172 58.8156232,110.472776 58.8156232,108.808094 L58.8156232,107.816131 L49.7174038,109.851458 L49.7174038,125.004553 Z M134.909822,75.1272149 L134.909822,90.998629 L141.354394,89.556939 C144.961534,88.7499998 147.661105,87.484787 149.453188,85.7612628 C151.24527,84.0377386 152.141298,81.841983 152.141298,79.1739302 C152.141298,76.5514852 151.239527,74.7807118 149.435956,73.861557 C147.632386,72.9424021 144.938559,72.8837254 141.354394,73.6855249 L134.909822,75.1272149 Z M142.112579,104.33519 C143.238374,104.083343 144.053989,104.089014 144.559449,104.352204 C145.064908,104.615393 145.317634,105.15745 145.317634,105.978389 C145.317634,106.890544 145.076395,107.583009 144.593912,108.055805 C144.111428,108.528602 143.192425,108.916617 141.836875,109.219861 L124.984492,112.989842 C124.203328,113.164593 123.605976,113.087292 123.192418,112.757936 C122.778861,112.428579 122.572085,111.864842 122.572085,111.066707 C122.572085,110.268571 122.773117,109.630707 123.175187,109.153096 C123.577256,108.675485 124.203327,108.341599 125.053418,108.151429 L129.499138,107.156894 L129.499138,76.3376177 L127.086732,76.8772878 C125.064895,77.3295849 123.80701,77.4342541 123.313038,77.1912986 C122.819067,76.948343 122.572085,76.3593947 122.572085,75.4244361 C122.572085,74.6263006 122.778861,73.9700493 123.192418,73.4556624 C123.605976,72.9412754 124.203328,72.5967115 124.984492,72.4219604 L140.940839,68.8524285 C146.523865,67.6034715 150.762766,67.7269695 153.657668,69.2229259 C156.55257,70.7188824 158,73.5533722 158,77.7264804 C158,81.8995886 156.564058,85.3677044 153.692131,88.1309319 C150.820204,90.8941594 146.569816,92.9053611 140.940839,94.1645976 L134.909822,95.5137727 L134.909822,105.946491 L142.112579,104.33519 Z" id="F-P" opacity="0.783482143"></path>
                            <path d="M19.8345916,192.336341 C19.8000456,193.633442 19.6489089,194.489502 19.3811771,194.904548 C19.1134452,195.319594 18.5909442,195.618153 17.8136582,195.800234 C17.2091024,195.941853 16.7556924,195.88909 16.4534146,195.641944 C16.1511367,195.394798 16,194.961869 16,194.343145 L16.0259094,193.937485 C16.0431824,193.667043 16.0518188,193.394333 16.0518188,193.119344 L16.3109128,184.551236 C16.3454589,183.907233 16.5181865,183.407031 16.8291009,183.050617 C17.1400153,182.694202 17.6236526,182.43912 18.2800275,182.285363 L40.7952986,177.011106 C41.4516734,176.857349 41.9353107,176.885845 42.2462251,177.096594 C42.5571395,177.307344 42.7212308,177.728644 42.7385038,178.360509 L43.0235072,186.801161 C43.0235072,187.110523 43.0321436,187.400671 43.0494166,187.671613 C43.0666896,187.942555 43.075326,188.069431 43.075326,188.052245 C43.075326,188.670969 42.9112348,189.169147 42.5830474,189.546794 C42.2548599,189.924442 41.7625862,190.19014 41.1062114,190.343898 C40.4152905,190.505747 39.9402896,190.440856 39.6811942,190.14922 C39.4220989,189.857585 39.2752804,189.071321 39.2407344,187.790405 L38.9816404,181.148287 L31.5456417,182.890187 L31.5456417,206.118007 L36.5461565,204.946625 C37.2716234,204.776682 37.7984427,204.795063 38.1266301,205.001766 C38.4548175,205.208469 38.6189087,205.621176 38.6189087,206.239901 C38.6189087,206.841438 38.4634539,207.337593 38.1525395,207.728381 C37.8416251,208.119169 37.3925332,208.383345 36.8052505,208.520918 L22.2700755,211.925817 C21.6827928,212.06339 21.2337009,212.009615 20.9227865,211.764492 C20.6118722,211.519369 20.4564173,211.096045 20.4564173,210.494508 C20.4564173,209.858597 20.6248267,209.363704 20.9616507,209.009814 C21.2984746,208.655923 21.8727939,208.383895 22.6846259,208.193722 L27.5296843,207.058755 L27.5296843,183.830935 L20.0936857,185.572836 L19.8345916,192.336341 Z M107.227008,176.711105 C107.227008,181.420283 105.914278,185.590465 103.288778,189.221775 C100.663279,192.853084 97.3037267,195.148185 93.2100206,196.107146 C89.1508605,197.058014 85.8042628,196.329548 83.170127,193.921727 C80.5359912,191.513906 79.218943,187.964053 79.218943,183.272061 C79.218943,178.52851 80.5230366,174.351758 83.1312629,170.741681 C85.7394891,167.131604 89.0990414,164.845097 93.2100206,163.88209 C97.3037267,162.923129 100.663279,163.64856 103.288778,166.058405 C105.914278,168.468249 107.227008,172.019113 107.227008,176.711105 Z M93.2100206,192.446379 C96.1118882,191.76661 98.3962111,190.127268 100.063058,187.528303 C101.729904,184.929339 102.563315,181.687799 102.563315,177.803586 C102.563315,173.919373 101.729904,171.06829 100.063058,169.250252 C98.3962111,167.432213 96.1118882,166.863087 93.2100206,167.542856 C90.2908799,168.226672 88.0065571,169.857421 86.3569835,172.435152 C84.70741,175.012884 83.8826356,178.260994 83.8826356,182.17958 C83.8826356,186.063793 84.7160463,188.914876 86.3828929,190.732915 C88.0497395,192.550953 90.325426,193.122103 93.2100206,192.446379 Z M150.858442,154.940876 L150.599348,160.363819 C150.582075,160.591293 150.56912,160.804863 150.560484,161.004534 C150.551847,161.204205 150.547529,161.407158 150.547529,161.6134 C150.547529,162.232124 150.387756,162.720697 150.068205,163.079135 C149.748654,163.437572 149.252062,163.695689 148.578415,163.853493 C147.939313,164.003204 147.477266,163.943871 147.192261,163.675491 C146.907257,163.407112 146.764756,162.886228 146.764756,162.112823 L146.764756,161.107401 L147.101579,153.913207 C147.118852,153.290437 147.287261,152.795544 147.606812,152.428513 C147.926363,152.061482 148.422955,151.799069 149.096603,151.641265 L163.916781,148.169602 C164.935889,147.930874 165.704527,147.944167 166.222718,148.209482 C166.740909,148.474797 167,148.976963 167,149.715995 C167,150.094104 166.917954,150.51291 166.753861,150.972426 C166.589767,151.431941 166.352266,151.938723 166.041352,152.492785 L150.754804,178.192974 L162.750858,175.382869 L163.061771,169.277507 C163.148136,167.177675 163.804501,166.035695 165.030885,165.748412 C165.669987,165.5987 166.136352,165.665615 166.429993,165.949158 C166.723635,166.232701 166.870453,166.761167 166.870453,167.534572 L166.844544,167.862892 C166.827271,168.081773 166.818634,168.294331 166.818634,168.500573 L166.455903,176.396897 C166.43863,177.036854 166.274538,177.526439 165.963624,177.865667 C165.652709,178.204894 165.160436,178.453406 164.486788,178.61121 L148.215683,182.422755 C147.472943,182.596744 146.868396,182.523529 146.402025,182.203108 C145.935653,181.882687 145.702471,181.378749 145.702471,180.691277 C145.702471,180.278794 145.806107,179.799074 146.013384,179.252103 C146.22066,178.705131 146.540206,178.063121 146.972032,177.326054 L161.844029,152.367476 L150.858442,154.940876 Z" id="T-O-Z" filter="url(#filter-3)"></path>
                            <path d="M30.1101915,265.460055 C30.1101915,264.495491 30.2071402,263.850235 30.4010404,263.524267 C30.5949407,263.198299 30.9633456,262.975078 31.5062663,262.854596 C31.9716268,262.751326 32.320642,262.792835 32.5533223,262.979126 C32.7860026,263.165417 32.902341,263.509343 32.902341,264.010917 L32.902341,271.187235 C32.902341,271.637364 32.7795393,272.015069 32.5339324,272.320359 C32.2883254,272.625649 31.9457735,272.827058 31.5062663,272.924591 L13.3960747,276.943499 C12.9307142,277.046769 12.581699,277.008475 12.3490187,276.828614 C12.1163384,276.648754 12,276.327334 12,275.864343 C12,275.349909 12.1389598,274.968619 12.4168834,274.720462 C12.6948071,274.472304 13.3249734,274.239221 14.3074013,274.021207 L16.7311421,273.483344 L16.7311421,256.101993 L14.3074013,256.639856 C13.3508268,256.852133 12.7271237,256.890872 12.4362734,256.756072 C12.145423,256.621273 12,256.290231 12,255.762936 C12,255.287085 12.11957,254.910098 12.3587136,254.631963 C12.5978573,254.353829 12.9694938,254.158827 13.4736344,254.046951 L23.9635848,251.719082 C24.4289453,251.615812 24.7844238,251.652672 25.0300307,251.829664 C25.2756377,252.006655 25.3984393,252.326642 25.3984393,252.789632 C25.3984393,253.316927 25.2530164,253.712512 24.962166,253.976399 C24.6713156,254.240286 24.0346861,254.481233 23.0522582,254.699248 L19.7947505,255.422135 L19.7947505,272.803486 L30.1101915,270.514343 L30.1101915,265.460055 Z M67.2031213,244.901545 L67.2031213,253.852651 L70.8290376,253.048009 C72.8585267,252.597636 74.3773891,251.88762 75.3856704,250.917939 C76.3939516,249.948258 76.8980847,248.711076 76.8980847,247.206357 C76.8980847,245.727359 76.39072,244.727504 75.3759754,244.206761 C74.3612308,243.686018 72.8456001,243.649399 70.8290376,244.096902 L67.2031213,244.901545 Z M71.255616,261.38359 C71.8890234,261.243027 72.3479138,261.247294 72.6323008,261.396388 C72.9166878,261.545483 73.0588792,261.851521 73.0588792,262.314511 C73.0588792,262.828945 72.923151,263.219163 72.6516907,263.485178 C72.3802304,263.751192 71.8631708,263.968821 71.1004966,264.138069 L61.6188224,266.242187 C61.1793152,266.33972 60.8432265,266.295342 60.6105462,266.109051 C60.3778659,265.92276 60.2615275,265.604555 60.2615275,265.154425 C60.2615275,264.704295 60.3746343,264.344818 60.6008513,264.075983 C60.8270682,263.807148 61.179315,263.619664 61.6576023,263.513525 L64.1589028,262.958451 L64.1589028,245.5771 L62.8016079,245.878303 C61.6640599,246.130741 60.9563346,246.188125 60.678411,246.050457 C60.4004873,245.912789 60.2615275,245.580313 60.2615275,245.053018 C60.2615275,244.602888 60.3778659,244.233049 60.6105462,243.943488 C60.8432265,243.653927 61.1793152,243.460383 61.6188224,243.36285 L70.5963585,241.370608 C73.7375423,240.673534 76.1224794,240.748734 77.7512414,241.596208 C79.3800034,242.443683 80.1943722,244.044164 80.1943722,246.397699 C80.1943722,248.751234 79.3864667,250.705291 77.7706314,252.259927 C76.1547961,253.814562 73.7633957,254.943269 70.5963585,255.646079 L67.2031213,256.399087 L67.2031213,262.282896 L71.255616,261.38359 Z M125.83826,251.990982 L108.910854,255.747414 C108.445493,255.850684 108.093246,255.813107 107.854103,255.634681 C107.614959,255.456255 107.495389,255.135551 107.495389,254.672561 C107.495389,254.158127 107.634349,253.776837 107.912272,253.528679 C108.190196,253.280522 108.826826,253.046005 109.82218,252.825122 L111.063135,252.549736 L111.063135,235.168385 L109.82218,235.443771 C108.852679,235.658917 108.222513,235.699089 107.931662,235.56429 C107.640812,235.429491 107.495389,235.098449 107.495389,234.571154 C107.495389,234.095302 107.614959,233.718315 107.854103,233.440181 C108.093246,233.162047 108.45842,232.968479 108.949633,232.859472 L125.83826,229.111646 C126.277767,229.014113 126.610624,229.072069 126.836841,229.285515 C127.063058,229.498962 127.176165,229.856467 127.176165,230.35804 L127.176165,234.910758 C127.176165,235.579522 127.079216,236.06402 126.885316,236.364266 C126.691415,236.664512 126.3424,236.87057 125.83826,236.982446 C125.308266,237.100059 124.943092,237.039629 124.742729,236.801154 C124.542365,236.562679 124.442185,235.948308 124.442185,234.958022 L124.442185,232.199384 L114.126744,234.488527 L114.126744,240.989654 L119.206905,239.862294 L119.206905,238.839861 C119.206905,238.145376 119.300622,237.642304 119.488059,237.330631 C119.675496,237.018958 120.001889,236.81149 120.46725,236.70822 C120.919684,236.607818 121.233151,236.682938 121.407661,236.933581 C121.582172,237.184224 121.669425,237.785387 121.669425,238.73709 L121.669425,242.325249 C121.669425,243.289813 121.57894,243.927204 121.397966,244.237443 C121.216993,244.547681 120.893831,244.754433 120.42847,244.857703 C119.96311,244.960973 119.643179,244.877642 119.468669,244.607708 C119.294159,244.337774 119.206905,243.759116 119.206905,242.871718 L119.206905,242.196526 L114.126744,243.323886 L114.126744,251.869878 L124.442185,249.580735 L124.442185,246.455564 C124.442185,245.465279 124.542365,244.806445 124.742729,244.479043 C124.943092,244.15164 125.308266,243.929136 125.83826,243.811523 C126.329474,243.702516 126.675257,243.757603 126.875621,243.976787 C127.075984,244.195971 127.176165,244.67209 127.176165,245.405158 L127.176165,250.266535 C127.176165,250.729526 127.059826,251.109011 126.827146,251.405002 C126.594466,251.700993 126.26484,251.896318 125.83826,251.990982 Z M161.147316,241.435345 C161.56097,241.382132 161.971386,241.319992 162.378576,241.248922 C162.785767,241.177851 163.183257,241.099288 163.571057,241.01323 C166.751021,240.307551 169.08102,239.083155 170.561126,237.340005 C172.041231,235.596855 172.781272,233.201306 172.781272,230.153284 C172.781272,227.092402 172.037999,225.029236 170.551431,223.963725 C169.064862,222.898213 166.686388,222.72834 163.415938,223.454099 C162.808383,223.588924 162.346262,223.697906 162.029558,223.781048 C161.712854,223.86419 161.418776,223.955171 161.147316,224.053994 L161.147316,241.435345 Z M161.147316,244.155401 L157.211161,245.02889 C156.732874,245.135029 156.374164,245.098886 156.13502,244.92046 C155.895876,244.742034 155.776306,244.42133 155.776306,243.95834 C155.776306,243.456767 155.915266,243.078692 156.19319,242.824104 C156.471114,242.569516 156.997868,242.356167 157.773469,242.18405 L158.122488,242.106598 L158.122488,224.725247 L157.812249,224.794093 C157.036648,224.96621 156.50343,224.981653 156.21258,224.840424 C155.921729,224.699194 155.776306,224.371367 155.776306,223.856933 C155.776306,223.381082 155.895876,223.004094 156.13502,222.72596 C156.374164,222.447826 156.7458,222.252824 157.249941,222.140948 L165.43249,220.325124 C168.651234,219.610839 171.217142,220.073495 173.130291,221.713107 C175.04344,223.352718 176,225.927991 176,229.439003 C176,231.149496 175.725312,232.798744 175.175928,234.386797 C174.626544,235.97485 173.828333,237.43805 172.781272,238.776441 C171.811771,239.994733 170.632229,240.986332 169.242611,241.751269 C167.852992,242.516205 166.065905,243.141061 163.881296,243.625857 C163.622762,243.683229 163.186493,243.767183 162.572476,243.877721 C161.958458,243.988258 161.48341,244.080817 161.147316,244.155401 Z" id="L-P-E-D" opacity="0.76171875" filter="url(#filter-4)"></path>
                            <path d="M6.18318787,323.967014 L6.18318787,331.917885 L9.41295361,331.183603 C11.2207103,330.772613 12.5736289,330.133746 13.4717501,329.266984 C14.3698713,328.400222 14.8189251,327.29857 14.8189251,325.961994 C14.8189251,324.648266 14.3669927,323.762875 13.4631144,323.305795 C12.559236,322.848714 11.2091959,322.82436 9.41295361,323.232733 L6.18318787,323.967014 Z M9.79292605,338.585429 C10.3571304,338.457159 10.7658845,338.458473 11.0192007,338.589374 C11.272517,338.720274 11.3991732,338.991347 11.3991732,339.402601 C11.3991732,339.85955 11.2782741,340.206896 11.0364722,340.444648 C10.7946704,340.682401 10.3341023,340.878499 9.65475425,341.032948 L1.20900322,342.953074 C0.817514503,343.042079 0.518145271,343.004472 0.310886541,342.840253 C0.103627811,342.676034 0,342.394014 0,341.994183 C0,341.594353 0.10074926,341.274436 0.302250804,341.034421 C0.503752347,340.794407 0.81751433,340.625974 1.24354616,340.529116 L3.47156638,340.022579 L3.47156638,324.583497 L2.26256316,324.858361 C1.24929826,325.088725 0.618895741,325.143514 0.371336702,325.022728 C0.123777663,324.901943 0,324.607368 0,324.138995 C0,323.739165 0.103627811,323.410025 0.310886541,323.151567 C0.518145271,322.893108 0.817514503,322.719379 1.20900322,322.630375 L9.20569591,320.812341 C12.0036888,320.176222 14.1280589,320.230157 15.57887,320.974148 C17.0296811,321.718138 17.7550758,323.135383 17.7550758,325.225924 C17.7550758,327.316465 17.0354382,329.056523 15.5961415,330.446151 C14.1568447,331.835778 12.0267175,332.851254 9.20569591,333.492609 L6.18318787,334.17977 L6.18318787,339.406097 L9.79292605,338.585429 Z M58.4121268,329.948045 L43.3341295,333.376001 C42.9196121,333.470241 42.6058501,333.438762 42.3928342,333.281564 C42.1798183,333.124365 42.0733119,332.840144 42.0733119,332.42889 C42.0733119,331.971941 42.1970896,331.632508 42.4446486,331.410582 C42.6922076,331.188656 43.259282,330.976912 44.1458888,330.775344 L45.2512632,330.524039 L45.2512632,315.084956 L44.1458888,315.336261 C43.2823108,315.532594 42.7209935,315.571676 42.4619201,315.453508 C42.2028467,315.33534 42.0733119,315.042074 42.0733119,314.573702 C42.0733119,314.151024 42.1798183,313.815518 42.3928342,313.567174 C42.6058501,313.31883 42.9311263,313.144923 43.3686725,313.045448 L58.4121268,309.625345 C58.8036155,309.536341 59.1001062,309.586026 59.3016077,309.774401 C59.5031093,309.962776 59.6038585,310.279722 59.6038585,310.725247 L59.6038585,314.769224 C59.6038585,315.363257 59.517502,315.794138 59.3447864,316.061879 C59.1720708,316.32962 58.8611874,316.514535 58.4121268,316.616628 C57.9400374,316.723956 57.6147613,316.672248 57.4362885,316.461502 C57.2578157,316.250756 57.1685806,315.705577 57.1685806,314.825951 L57.1685806,312.375575 L47.9801562,314.464547 L47.9801562,320.239209 L52.5052825,319.21043 L52.5052825,318.302248 C52.5052825,317.685367 52.5887605,317.238006 52.7557189,316.96015 C52.9226773,316.682294 53.2134109,316.496249 53.6279283,316.402009 C54.0309314,316.310387 54.3101508,316.375422 54.4655949,316.597116 C54.6210389,316.81881 54.6987598,317.352326 54.6987598,318.197682 L54.6987598,321.384884 C54.6987598,322.241663 54.6181604,322.808318 54.4569591,323.084865 C54.2957579,323.361412 54.0079029,323.546802 53.5933854,323.641042 C53.1788679,323.735282 52.8938915,323.662988 52.7384474,323.424159 C52.5830034,323.18533 52.5052825,322.671804 52.5052825,321.883567 L52.5052825,321.283825 L47.9801562,322.312604 L47.9801562,329.90363 L57.1685806,327.814657 L57.1685806,325.038707 C57.1685806,324.15908 57.2578157,323.573327 57.4362885,323.28143 C57.6147613,322.989532 57.9400374,322.789922 58.4121268,322.682594 C58.849673,322.583118 59.1576779,322.630185 59.3361507,322.823796 C59.5146235,323.017407 59.6038585,323.439782 59.6038585,324.090934 L59.6038585,328.40908 C59.6038585,328.820334 59.5002307,329.158041 59.292972,329.422211 C59.0857132,329.686382 58.7921011,329.861658 58.4121268,329.948045 Z M99.4491502,300.861121 C99.5642939,300.526503 99.7254928,300.272807 99.9327515,300.100026 C100.14001,299.927246 100.439379,299.796355 100.830868,299.707351 C101.2569,299.610493 101.556269,299.645244 101.728985,299.811604 C101.9017,299.977965 101.988057,300.381003 101.988057,301.020732 C101.988057,302.140256 101.999571,303.180038 102.0226,304.140106 C102.045629,305.100175 102.057143,305.517373 102.057143,305.391712 C102.057143,305.928627 101.965029,306.312267 101.780799,306.542643 C101.596569,306.773018 101.268415,306.941868 100.796325,307.049197 C100.036377,307.22197 99.5412659,306.797625 99.3109784,305.776151 C99.2303778,305.474611 99.1670497,305.243402 99.1209922,305.082518 C98.9022191,304.275476 98.3783229,303.694891 97.549288,303.340743 C96.7202531,302.986596 95.7473031,302.936485 94.6304088,303.190409 C92.5923646,303.653755 90.9573481,304.765148 89.7253101,306.524622 C88.4932721,308.284095 87.8772623,310.408986 87.8772623,312.899357 C87.8772623,315.389729 88.5019077,317.232559 89.7512173,318.427902 C91.0005268,319.623246 92.6499362,319.987931 94.6994947,319.521967 C95.3673284,319.370136 96.0466663,319.121446 96.7375287,318.775888 C97.4283911,318.43033 98.107729,317.993151 98.7755627,317.464337 C99.0864508,317.233725 99.5124762,316.86556 100.053652,316.35983 C100.594827,315.8541 100.980553,315.575061 101.210841,315.522706 C101.567786,315.441555 101.870034,315.489931 102.117593,315.667835 C102.365152,315.845739 102.48893,316.106043 102.48893,316.448755 C102.48893,316.791466 102.353638,317.150652 102.08305,317.526322 C101.812462,317.901992 101.308716,318.402063 100.571796,319.026549 C99.6045886,319.874747 98.6316386,320.558599 97.6529169,321.078126 C96.6741951,321.597654 95.6436741,321.980447 94.5613229,322.226518 C91.7172726,322.873107 89.3683755,322.41042 87.5145613,320.838442 C85.6607471,319.266464 84.7338539,316.926884 84.7338539,313.819632 C84.7338539,310.746651 85.6722613,307.980142 87.5491043,305.520022 C89.4259472,303.059903 91.7863585,301.506572 94.6304088,300.859982 C95.3903575,300.687209 96.1646875,300.602555 96.9534221,300.606017 C97.7421568,300.609479 98.5740578,300.694513 99.4491502,300.861121 Z M133.30124,310.506031 L136.980064,309.669657 C137.463668,309.55971 137.814851,309.574114 138.033624,309.712867 C138.252397,309.851621 138.361782,310.126621 138.361782,310.537875 C138.361782,310.937705 138.258154,311.266845 138.050896,311.525303 C137.843637,311.783762 137.544268,311.957491 137.152779,312.046495 L128.637942,313.982329 C128.246453,314.071333 127.947084,314.033726 127.739825,313.869507 C127.532567,313.705288 127.428939,313.423268 127.428939,313.023438 C127.428939,312.60076 127.541202,312.272513 127.765733,312.038687 C127.990263,311.804861 128.37311,311.626433 128.914286,311.503397 L130.572347,311.12644 L130.572347,295.687357 L129.484244,295.934735 C128.609152,296.133686 128.047835,296.172768 127.800276,296.051983 C127.552717,295.931197 127.428939,295.636622 127.428939,295.16825 C127.428939,294.768419 127.532567,294.43928 127.739825,294.180821 C127.947084,293.922362 128.246453,293.748633 128.637942,293.659629 L143.923197,290.184553 C144.314686,290.095549 144.611176,290.145234 144.812678,290.333609 C145.01418,290.521984 145.114929,290.83893 145.114929,291.284455 L145.114929,295.705413 C145.114929,296.105243 145.01418,296.428017 144.812678,296.673743 C144.611176,296.919469 144.314686,297.086832 143.923197,297.175836 C143.439593,297.285782 143.111439,297.234729 142.938723,297.022674 C142.766007,296.810618 142.679651,296.264786 142.679651,295.385159 L142.679651,292.934783 L133.30124,295.066948 L133.30124,300.841611 L137.86091,299.804978 L137.86091,299.359455 C137.86091,298.525523 137.941509,297.947445 138.10271,297.625203 C138.263911,297.302961 138.551766,297.094724 138.966284,297.000484 C139.334744,296.916715 139.602449,296.964376 139.769407,297.143469 C139.936366,297.322562 140.019844,297.652002 140.019844,298.131799 L140.019844,302.484215 C140.019844,303.055401 139.942123,303.467183 139.786679,303.719574 C139.631235,303.971964 139.357773,304.142659 138.966284,304.231664 C138.551766,304.325903 138.263911,304.248552 138.10271,303.999608 C137.941509,303.750664 137.86091,303.209234 137.86091,302.375302 L137.86091,301.878373 L133.30124,302.915006 L133.30124,310.506031 Z M174.770051,301.07817 C175.13851,301.028672 175.504086,300.971262 175.866789,300.905938 C176.229492,300.840614 176.583554,300.768686 176.928985,300.690153 C179.761521,300.046181 181.836956,298.946039 183.155351,297.389695 C184.473747,295.83335 185.132935,293.701499 185.132935,290.994077 C185.132935,288.275231 184.470869,286.446621 183.146716,285.508191 C181.822563,284.569761 179.70395,284.431696 176.790813,285.093993 C176.249637,285.217028 175.838005,285.316324 175.555903,285.391883 C175.2738,285.467442 175.011852,285.549842 174.770051,285.639087 L174.770051,301.07817 Z M174.770051,303.494275 L171.263941,304.291383 C170.837909,304.38824 170.51839,304.35807 170.305374,304.200872 C170.092358,304.043674 169.985852,303.759452 169.985852,303.348198 C169.985852,302.902673 170.10963,302.566096 170.357189,302.338458 C170.604748,302.110821 171.073952,301.918471 171.764814,301.761405 L172.075701,301.690725 L172.075701,286.251643 L171.799357,286.314469 C171.108494,286.471535 170.633534,286.488128 170.37446,286.364249 C170.115387,286.240369 169.985852,285.949959 169.985852,285.49301 C169.985852,285.070332 170.092358,284.734827 170.305374,284.486483 C170.51839,284.238139 170.849424,284.062923 171.298484,283.96083 L178.587046,282.303788 C181.454125,281.651963 183.739694,282.049082 185.443822,283.495159 C187.147949,284.941236 188,287.223579 188,290.342255 C188,291.86161 187.755323,293.328045 187.265962,294.741605 C186.776601,296.155164 186.0656,297.459164 185.132935,298.653644 C184.269357,299.741027 183.218686,300.628182 181.980891,301.315135 C180.743096,302.002087 179.151258,302.566757 177.205328,303.009161 C176.975041,303.061516 176.586437,303.138441 176.039504,303.239938 C175.492571,303.341434 175.069424,303.426213 174.770051,303.494275 Z" id="P-E-C-F-D" opacity="0.650669643" filter="url(#filter-5)"></path>
                        </g>
                    </g>
                </g>
            </g>
        </g>
    </g>
</svg>