<?xml version="1.0" encoding="UTF-8"?>
<svg width="195px" height="356px" viewBox="0 0 195 356" version="1.1" xmlns="http://www.w3.org/2000/svg" xmlns:xlink="http://www.w3.org/1999/xlink">
    <!-- Generator: Sketch 50.2 (55047) - http://www.bohemiancoding.com/sketch -->
    <title>Person</title>
    <desc>Created with Sketch.</desc>
    <defs>
        <linearGradient x1="50%" y1="0%" x2="50%" y2="100%" id="linearGradient-1">
            <stop stop-color="#5B94F6" offset="0%"></stop>
            <stop stop-color="#2E5BEA" offset="100%"></stop>
        </linearGradient>
        <filter x="-2.0%" y="-15.7%" width="103.9%" height="131.3%" filterUnits="objectBoundingBox" id="filter-2">
            <feGaussianBlur stdDeviation="1.25279018" in="SourceGraphic"></feGaussianBlur>
        </filter>
    </defs>
    <g id="Page-2" stroke="none" stroke-width="1" fill="none" fill-rule="evenodd">
        <g id="Green-Landing" transform="translate(-1072.000000, -529.000000)">
            <g id="HEADER" transform="translate(166.000000, -79.000000)">
                <g id="header-graphics" transform="translate(642.000000, 219.000000)">
                    <g id="Person" transform="translate(266.000000, 389.000000)">
                        <path d="M90.989157,61.9126079 L95.1571322,54.285469 C91.4664313,54.6185925 88.7188066,54.6185925 86.9142581,54.285469 C85.1097096,53.9523455 83.8939223,53.2206911 83.2668962,52.0905059 L85.26957,30.9427623 L86.9142581,26.2224665 L85.26957,24.2003592 C90.6434452,7.8284845 99.482962,3.73551581 111.78812,11.9214532 C124.093279,20.1073905 125.436918,29.5844626 115.819038,40.3526695 L113.852163,65.8023771 L151.968859,102.212821 C157.683348,114.001775 160.083411,122.158312 159.169049,126.682431 C158.330053,130.833645 144.912738,146.062529 131.746008,162.955577 C131.216618,163.634789 131.068507,165.506121 129.779676,167.752585 C129.359105,168.485649 128.383606,169.636831 126.853177,171.20613 L126.853177,167.752585 L118.785205,156.892324 L123.798026,152.02372 L125.85762,156.892324 L142.149797,126.682431 C139.781897,124.189336 138.061965,122.340426 136.99,121.1357 C133.750599,117.495103 132.316323,114.376716 131.746008,113.778112 C130.892603,112.882378 129.899272,112.213896 128.766014,111.772666 L77.9932569,104.928157 C68.4852505,110.988715 61.5872279,115.47227 57.2991893,118.378823 C53.0111507,121.285377 51.2815404,122.907046 52.1103582,123.243832 L63.9235472,154.492048 L66.4221396,150.412785 L65.0883875,162.955577 C69.5402538,171.923316 70.7537471,176.153109 68.7288675,175.644957 C65.691548,174.882728 65.7936957,180.663689 57.2991893,164.231112 C48.804683,147.798534 35.0582003,137.715208 35.0582003,123.243832 C35.0582003,119.503989 40.7422529,110.401177 52.1103582,95.9353983 L90.989157,61.9126079 Z" id="Path-4" fill="#C8C8D7"></path>
                        <path d="M138,326.66531 L138,339.698447 L147.243234,339.698447 L146.129071,335.772139 C147.250061,337.987607 148.427898,339.296376 149.662583,339.698447 C150.897268,340.100518 155.524038,340.100518 163.542892,339.698447 L163.542892,337.26495 C157.549921,335.533492 154.40912,334.575349 154.120488,334.390521 C147.226662,329.976024 148.956834,326.745182 146.129071,325.571734 C143.123719,324.32459 140.414028,324.689116 138,326.66531 Z" id="Path-7" fill="#000000"></path>
                        <path d="M50,326.817376 L50,339.850512 L59.2432337,339.850512 L58.1290714,335.924204 C59.2500608,338.139672 60.427898,339.448442 61.6625831,339.850512 C62.8972682,340.252583 67.5240377,340.252583 75.5428916,339.850512 L75.5428916,337.417016 C69.5499214,335.685557 66.40912,334.727414 66.1204876,334.542587 C59.2266621,330.12809 60.9568339,326.897248 58.1290714,325.7238 C55.1237187,324.476656 52.4140282,324.841181 50,326.817376 Z" id="Path-7" fill="#000000" transform="translate(62.771446, 332.576033) scale(-1, 1) translate(-62.771446, -332.576033) "></path>
                        <path d="M62.5808257,171.92512 L65.0309953,328.30708 C67.0007663,327.739809 68.7007247,327.739809 70.1308704,328.30708 C71.5610161,328.874351 74.1251087,328.874351 77.8231483,328.30708 C83.5236393,292.153944 87.3787459,270.141927 89.388468,262.271029 C93.5357973,246.028382 96.9612844,228.603413 99.6649293,209.996123 L136.554402,328.30708 L148.663177,328.30708 C136.679028,237.769822 130.53958,190.328889 130.244835,185.98428 C129.963928,181.843652 129.216735,175.9632 128.003256,168.342923 L62.5808257,171.92512 Z" id="Path-5" fill="#3D3F81"></path>
                        <path d="M90.4676312,1.92655464 C92.5411484,8.41149525 93.5779069,13.3670816 93.5779069,16.7933138 C93.5779069,20.2195459 92.5411484,22.5251158 90.4676312,23.7100234 L93.5779069,28.3292829 L90.4676312,32.4882831 C90.1949158,36.9269993 90.1949158,40.0757368 90.4676312,41.9344957 C90.7403466,43.7932546 91.7771052,47.7108003 93.5779069,53.6871329 C96.2594051,52.3230219 98.1337757,51.6409663 99.2010188,51.6409663 C100.268262,51.6409663 101.134934,52.3230219 101.801035,53.6871329 L97.0228002,68.488507 C125.241368,91.2499834 141.887626,110.207794 146.961572,125.361938 C149.765304,133.735727 146.561161,128.253316 142.282056,134.71456 C140.825725,136.91355 143.834726,140.537162 140.267941,146.446684 C138.874266,148.755752 134.581077,153.000223 127.388374,159.180097 L127.388374,171.6212 C131.234841,164.42904 134.839564,158.814903 138.202543,154.778787 C147.048401,144.162336 160.092007,132.243903 158.979596,123.113206 C158.215027,116.837609 152.810913,101.695089 146.961572,92.9976338 C141.951966,85.5487899 130.940787,74.9290657 113.928033,61.1384613 L115.506353,47.9436348 C121.110598,39.5015465 124.022547,34.3497626 124.2422,32.4882831 C124.895904,26.9483868 120.780293,23.9865417 119.742172,21.3664191 C118.371492,17.9069469 110.452259,25.9921517 104.494641,13.444575 C102.698904,9.66250018 98.0232337,5.82316007 90.4676312,1.92655464 Z" id="Path-10" fill="#AB6D6D" style="mix-blend-mode: multiply;" opacity="0.293415179"></path>
                        <path d="M92.4838797,60.6224231 L114.460956,60.6224231 C121.497141,62.9419087 127.406903,65.5624187 132.19024,68.483953 C135.974804,70.7954637 142.653671,82.100008 152.226841,102.397586 C148.912431,106.11283 146.151487,108.697219 143.94401,110.150753 C141.736534,111.604287 137.81861,113.306646 132.19024,115.257832 C129.77625,125.386511 128.569256,135.296474 128.569256,144.987721 C128.569256,154.678968 128.569256,163.714112 128.569256,172.093154 C111.851896,175.145635 99.35647,176.671875 91.0829779,176.671875 C82.8094859,176.671875 73.3198596,175.145635 62.6140989,172.093154 C63.7658037,156.101576 64.8262051,144.089745 65.7953031,136.057662 C66.764401,128.025578 68.7010721,119.389942 71.6053162,110.150753 L62.6140989,115.257832 C60.8913307,111.694845 59.3516186,108.261427 57.9949624,104.957578 C57.0263224,102.598661 54.7062378,99.9084561 51.0347086,96.8869647 C58.2016249,84.7687996 64.281524,76.4568844 69.274406,71.951219 C74.267288,67.4455536 82.0037792,63.6692883 92.4838797,60.6224231 Z" id="Path-3" fill="#1A81FB"></path>
                        <path d="M77.6831455,95.002092 C81.5936184,96.7204255 79.5676753,101.769979 71.6053162,110.150753 C66.5206505,112.902582 63.523578,114.278497 62.6140989,114.278497 C61.7815776,114.278497 69.0895851,110.26562 70.8189507,103.402905 C71.923426,99.0199695 66.3499517,91.8044233 69.2688778,89.1703326 C76.7582008,82.4118345 71.6053162,92.3313824 77.6831455,95.002092 Z" id="Path-3" fill="url(#linearGradient-1)" opacity="0.160044643" style="mix-blend-mode: multiply;"></path>
                        <path d="M114.559967,61 C121.596152,63.3194856 127.505913,65.9399956 132.28925,68.86153 C136.073814,71.1730406 142.752682,82.4775849 152.325851,102.775163 C149.011441,106.490407 146.250497,109.074796 144.043021,110.52833 C143.003358,111.212906 139.085434,112.750513 132.28925,115.141152 C129.875261,125.599336 128.668266,135.674051 128.668266,145.365298 C128.668266,148.476196 128.668266,157.621244 128.668266,172.800441 L148.810936,328.847011 L146.252388,325.660744 C144.779477,308.717358 140.578983,295.850692 133.650909,287.060746 C123.258797,273.875827 135.046389,267.718755 133.650909,263.664502 C126.471568,242.806553 118.877636,246.650095 121.093992,233.680242 C124.62383,213.024049 117.817929,203.868698 100.676289,206.21419 L77.7367987,328.847011 L75.1374584,328.847011 C72.5545208,315.11116 71.5664011,305.577378 72.1730995,300.245665 C73.2225282,291.023202 77.5334431,283.566986 77.7367987,278.87054 C78.1887062,268.433853 76.5017724,248.78995 76.5017724,237.879422 C76.5017724,224.867179 85.7386167,214.993317 82.7956335,204.8338 C79.8526504,194.674283 76.295632,194.923505 75.1374584,187.778532 C71.44887,165.022993 84.1376503,159.847644 100.676289,136.90045 C119.683362,110.52833 97.0660412,106.468236 87.7035294,92.2390363 C77.877359,77.3051654 86.8295047,66.8921533 114.559967,61 Z" id="Path-3" fill="#000000" opacity="0.343191964" style="mix-blend-mode: multiply;"></path>
                        <path d="M96.2927538,34.876551 L99.1177503,34.876551 C100.048659,44.6812401 99.5830128,50.6551107 97.720812,52.7981627 C95.8586111,54.9412148 90.6976042,55.4425912 82.2377911,54.3022918 C82.0784545,51.1682385 82.0784545,49.0077097 82.2377911,47.8207057 C82.3971278,46.6337016 83.0353741,44.0395111 84.1525302,40.0381343 C87.6508554,40.8444183 89.9035006,41.522429 90.9104659,42.0721663 C93.1761994,43.3091088 93.4492043,45.2530354 94.3114527,44.8864387 C95.7485176,44.2754507 96.4089513,40.9388215 96.2927538,34.876551 Z" id="Path-8" fill="#363C50"></path>
                        <path d="M88.045977,10.5701706 C88.2792227,13.1664006 88.6787676,14.8402426 89.2446117,15.5916967 C92.0088709,19.2626966 95.5424546,21.0357047 96.6938549,23.987175 C98.1987928,27.8448948 98.1987928,30.7618103 96.6938549,32.7379215 L99.9898702,32.7379215 C102.388477,30.291589 103.931236,29.501123 104.618148,30.3665232 C109.353186,36.331922 103.58778,37.7257519 103.58778,37.7257519 C103.58778,37.7257519 103.58778,41.2884055 103.58778,48.4137129 L115.848161,48.4137129 C131.341267,34.9572323 128.786553,21.4241045 108.184018,7.81432948 C103.340269,4.61460958 100.002105,3.91534498 96.6938549,2.32171361 C89.5184221,-1.13479527 86.6357961,1.6146904 88.045977,10.5701706 Z" id="Path-9" fill="#283050"></path>
                        <path d="M72.0685319,109.206531 L51.5293004,122.809129 L66.7418535,161.856987 C59.7091381,149.938163 54.638287,142.84647 51.5293004,140.58191 C49.8795787,139.380266 49.5544721,133.552799 47.9719322,131.26901 C46.5410399,129.204066 44.2294308,129.467502 44.2294308,124.470641 C44.2294308,113.947346 52.3145395,118.487503 56.1927804,114.619918 C59.1755214,111.645372 59.9828648,107.156465 63.1458182,105.892883 C65.6754612,104.882305 68.6496991,105.986854 72.0685319,109.206531 Z" id="Path-11" fill="#6E6D6D" style="mix-blend-mode: multiply;" opacity="0.232700893"></path>
                        <ellipse id="Oval-4" fill="#2E5BEA" opacity="0.224832589" filter="url(#filter-2)" cx="95.5" cy="341" rx="95.5" ry="12"></ellipse>
                    </g>
                </g>
            </g>
        </g>
    </g>
</svg>